<svg width="48.000000" height="48.000000" viewBox="0 0 48 48" fill="none" xmlns="http://www.w3.org/2000/svg" xmlns:xlink="http://www.w3.org/1999/xlink">
	<desc>
			Created with Pixso.
	</desc>
	<defs>
		<clipPath id="clip236_1486">
			<rect id="heroicons-solid/cloud-arrow-down" rx="0.000000" width="47.000000" height="47.000000" transform="translate(0.500000 0.500000)" fill="white" fill-opacity="0"/>
		</clipPath>
	</defs>
	<g clip-path="url(#clip236_1486)">
		<path id="Subtract" d="M21 7.5C14.37 7.5 9 12.87 9 19.5C9 19.83 9.01 20.16 9.04 20.49C5.47 22.16 3 25.79 3 30C3 35.79 7.7 40.5 13.5 40.5L36 40.5C40.97 40.5 45 36.47 45 31.5C45 28.13 43.14 25.19 40.41 23.65C40.46 23.27 40.5 22.89 40.5 22.5C40.5 18.35 37.14 15 33 15C32.71 15 32.42 15.01 32.14 15.04C30.37 10.62 26.05 7.5 21 7.5ZM25.5 19.5C25.5 18.67 24.82 18 24 18C23.17 18 22.5 18.67 22.5 19.5L22.5 29.37L19.06 25.93C18.47 25.35 17.52 25.35 16.93 25.93C16.35 26.52 16.35 27.47 16.93 28.06L22.93 34.06C23.52 34.64 24.47 34.64 25.06 34.06L31.06 28.06C31.64 27.47 31.64 26.52 31.06 25.93C30.47 25.35 29.52 25.35 28.93 25.93L25.5 29.37L25.5 19.5Z" fill="#0F172A" fill-opacity="1.000000" fill-rule="evenodd"/>
	</g>
</svg>
